<?xml version="1.0" encoding="UTF-8" standalone="no"?>
<svg
   width="1024"
   height="1024"
   viewBox="0 0 1024 1024"
   fill="none"
   version="1.1"
   id="svg4"
   xmlns="http://www.w3.org/2000/svg"
   xmlns:svg="http://www.w3.org/2000/svg"
   xmlns:rdf="http://www.w3.org/1999/02/22-rdf-syntax-ns#"
   xmlns:cc="http://creativecommons.org/ns#"
   xmlns:dc="http://purl.org/dc/elements/1.1/">
  <title
     id="title4">FreeCAD-symbol</title>
  <defs
     id="defs4" />
  <metadata
     id="metadata4">
    <rdf:RDF>
      <cc:Work
         rdf:about="">
        <dc:title>FreeCAD-symbol</dc:title>
        <dc:creator>
          <cc:Agent>
            <dc:title>Sebastian Tabares Amaya (sytabaresa), Max Wilfinger (maxwxyz)</dc:title>
          </cc:Agent>
        </dc:creator>
        <dc:publisher>
          <cc:Agent>
            <dc:title>The FreeCAD project association AISBL (FPA)</dc:title>
          </cc:Agent>
        </dc:publisher>
        <dc:date>2024-06-01</dc:date>
        <dc:description>A white letter F on a background that is split diagonally in half, blue on the bottom with a shape of a gear and red on the top.</dc:description>
      </cc:Work>
    </rdf:RDF>
  </metadata>
  <path
     d="M 938.66666,170.66666 768,341.33333 H 426.66667 v 128 H 597.33333 V 639.99999 H 426.66667 V 853.33332 L 256,1024 h 172.81621 c 12.9391,0 24.40064,-8.3315 28.39851,-20.6375 l 30.89024,-95.07323 c 2.95253,-9.09184 10.09024,-16.20608 19.18208,-19.16032 l 23.74656,-7.7167 c 9.09227,-2.9568 19.05365,-1.38666 26.78869,4.23254 l 80.85205,58.75925 c 10.46742,7.60448 24.65579,7.60448 35.1232,0 l 72.4736,-52.67413 c 10.4687,-7.60491 14.8463,-21.07478 10.848,-33.38112 L 726.2289,763.27508 c -2.9568,-9.09227 -1.36533,-19.05365 4.25387,-26.78869 l 14.68459,-20.19669 c 5.61877,-7.73419 14.58304,-12.32427 24.14293,-12.32512 l 99.968,0.0218 c 12.93994,4.2e-4 24.40064,-8.35286 28.3985,-20.6592 l 27.69323,-85.19552 c 3.99787,-12.30592 -0.384,-25.7984 -10.848,-33.40374 L 833.64778,505.9691 c -7.73461,-5.61963 -12.30293,-14.58261 -12.30293,-24.14336 v -24.98091 c 8.5e-4,-9.56032 4.56789,-18.54634 12.30293,-24.16512 l 92.71424,-67.35829 c 7.73589,-5.61877 12.30464,-14.60395 12.30464,-24.16427 z"
     style="fill:#418fde;fill-opacity:1;fill-rule:evenodd;stroke:none;stroke-width:0;stroke-linecap:square;stroke-dasharray:none"
     id="path8-4" />
  <path
     id="path7-7"
     style="display:inline;fill:#2375c8;fill-opacity:1;fill-rule:evenodd;stroke:none;stroke-width:0;stroke-linecap:square;stroke-dasharray:none"
     d="M 768,0 597.33333,170.66666 H 768 V 341.33333 L 938.66666,170.66666 V 0 Z M 256,682.66666 85.33334,853.33332 V 1024 H 256 L 426.66667,853.33332 H 256 Z" />
  <path
     d="M 256,0 85.33334,170.66666 V 853.33332 L 256,682.66666 v -512 H 597.33333 L 768,0 Z"
     style="fill:#1b5b9c;fill-opacity:1;fill-rule:evenodd;stroke:none;stroke-width:0;stroke-linecap:square;stroke-dasharray:none"
     id="path3-1" />
  <path
     d="M 256,853.33332 H 426.66667 V 639.99999 H 597.33333 V 469.33333 H 426.66667 v -128 H 768 V 170.66666 H 256 Z"
     style="fill:#ffffff;fill-opacity:1;fill-rule:evenodd;stroke:none;stroke-width:0;stroke-linecap:square;stroke-dasharray:none"
     id="path9-4" />
</svg>
