<?xml version="1.0" encoding="UTF-8" standalone="no"?>
<svg
   width="1560"
   height="480"
   viewBox="0 0 1560 480"
   fill="none"
   version="1.1"
   id="svg5"
   sodipodi:docname="Freecad_logo_large_blue.svg"
   inkscape:version="1.4.3 (0d15f75, 2025-12-25)"
   xmlns:inkscape="http://www.inkscape.org/namespaces/inkscape"
   xmlns:sodipodi="http://sodipodi.sourceforge.net/DTD/sodipodi-0.dtd"
   xmlns="http://www.w3.org/2000/svg"
   xmlns:svg="http://www.w3.org/2000/svg">
  <sodipodi:namedview
     id="namedview5"
     pagecolor="#ffffff"
     bordercolor="#000000"
     borderopacity="0.25"
     inkscape:showpageshadow="2"
     inkscape:pageopacity="0.0"
     inkscape:pagecheckerboard="0"
     inkscape:deskcolor="#d1d1d1"
     inkscape:zoom="0.50555556"
     inkscape:cx="680.43956"
     inkscape:cy="330.32967"
     inkscape:current-layer="svg5" />
  <g
     id="g5"
     transform="matrix(0.83332465,0,0,0.83332465,41.257698,40.000001)"
     style="stroke-width:1.20001">
    <path
       fill-rule="evenodd"
       clip-rule="evenodd"
       d="m 80,0 h 320 v 80 l -80,80 V 80 H 80 v 320 h 80 L 80,480 H 0 V 80 Z"
       fill="#ff585d"
       id="path1"
       style="fill:#2677cf;fill-opacity:1;stroke:none;stroke-width:1.20001" />
    <path
       d="M 80,320 0,400 V 80 L 80,0 H 320 L 240,80 H 80 Z"
       fill="#cb333b"
       id="path2"
       style="fill:#1d65af;fill-opacity:1;stroke:none;stroke-width:1.20001" />
    <path
       fill-rule="evenodd"
       clip-rule="evenodd"
       d="m 400,80 -79.995,80.005 h -160 v 59.996 H 240 v 80.005 H 160.005 V 400 L 80,480.005 h 81.008 c 6.065,0 11.437,-3.905 13.311,-9.674 l 14.48,-44.565 c 1.385,-4.262 4.73,-7.597 8.992,-8.982 l 11.131,-3.617 c 4.262,-1.385 8.931,-0.65 12.557,1.984 l 37.9,27.544 c 4.906,3.565 11.557,3.565 16.464,0 l 33.972,-24.691 c 4.907,-3.565 6.959,-9.879 5.085,-15.648 l -14.48,-44.565 c -1.385,-4.262 -0.64,-8.932 1.995,-12.557 l 6.883,-9.468 c 2.634,-3.625 6.836,-5.777 11.317,-5.777 l 46.86,0.01 c 6.066,0 11.438,-3.915 13.312,-9.684 l 12.981,-39.935 c 1.874,-5.769 -0.178,-12.093 -5.085,-15.658 l -37.91,-27.544 c -3.625,-2.634 -5.767,-6.835 -5.767,-11.317 v -11.709 c 0.001,-4.482 2.141,-8.694 5.767,-11.328 l 43.46,-31.574 c 3.625,-2.634 5.767,-6.846 5.767,-11.328 z"
       fill="#418fde"
       id="path3"
       style="stroke:none;stroke-width:1.20001" />
    <path
       fill-rule="evenodd"
       clip-rule="evenodd"
       d="m 80,80 h 240 v 80 H 160 v 60.001 h 80 V 300 H 160 V 400 H 80 Z"
       fill="#ffffff"
       id="path4"
       style="stroke-width:1.20001" />
    <path
       d="M 503.256,353 V 126.866 h 114.75 v 20.502 H 525.9 v 81.702 h 88.74 v 20.502 H 525.9 V 353 Z m 141.252,0 V 185.618 h 22.644 v 23.868 c 8.874,-18.36 23.256,-26.622 47.43,-27.846 v 22.338 c -31.518,3.06 -47.43,20.196 -47.43,51.408 V 353 Z M 895.57,276.806 H 744.1 c 1.836,33.048 30.6,59.364 65.178,59.364 25.398,0 48.96,-15.3 58.446,-38.25 h 23.562 c -12.24,35.19 -44.982,59.058 -81.396,59.058 -49.572,0 -88.434,-38.862 -88.434,-88.434 0,-48.654 38.25,-86.904 86.598,-86.904 33.048,0 62.73,17.442 77.418,45.594 7.344,14.076 10.098,27.234 10.098,49.572 z M 744.712,256.304 h 128.214 c -7.65,-33.354 -32.436,-53.856 -64.872,-53.856 -31.824,0 -57.222,21.726 -63.342,53.856 z m 349.878,20.502 H 943.119 c 1.836,33.048 30.6,59.364 65.181,59.364 25.4,0 48.96,-15.3 58.44,-38.25 h 23.57 c -12.24,35.19 -44.99,59.058 -81.4,59.058 -49.573,0 -88.435,-38.862 -88.435,-88.434 0,-48.654 38.25,-86.904 86.595,-86.904 33.05,0 62.73,17.442 77.42,45.594 7.35,14.076 10.1,27.234 10.1,49.572 z M 943.731,256.304 h 128.219 c -7.65,-33.354 -32.44,-53.856 -64.88,-53.856 -31.821,0 -57.219,21.726 -63.339,53.856 z m 348.039,33.66 h 49.27 c -17.75,41.31 -57.84,67.014 -104.35,67.014 -66.09,0 -119.03,-52.326 -119.03,-117.81 0,-63.954 52.32,-116.28 116.28,-116.28 28.46,0 55.69,9.792 76.8,27.54 14.39,12.24 21.73,22.338 30.3,41.31 h -46.82 c -15.3,-19.89 -33.05,-28.458 -59.36,-28.458 -23.26,0 -42.54,8.568 -56.31,24.786 -11.63,13.464 -18.66,33.048 -18.66,51.408 0,42.228 33.96,77.112 75.88,77.112 21.73,0 37.34,-7.344 56,-26.622 z M 1345.76,353 1440,126.866 h 33.05 L 1567.91,353 h -46.2 l -24.18,-58.446 h -80.48 L 1391.96,353 Z m 86.59,-98.532 h 48.35 l -24.17,-68.544 z M 1591.85,353 V 126.866 h 51.72 c 37.02,0 64.26,5.814 82.62,17.748 29.98,19.278 46.81,53.856 46.81,95.778 0,46.818 -21.42,84.15 -57.22,100.98 -18.05,8.262 -37.94,11.628 -71.3,11.628 z m 41.92,-40.086 h 9.18 c 25.1,0 42.54,-3.366 55.08,-10.098 20.2,-11.016 32.75,-35.19 32.75,-62.424 0,-29.682 -13.77,-54.162 -36.11,-65.178 -12.85,-6.12 -26.62,-8.262 -52.63,-8.262 h -8.27 z"
       fill="#212529"
       id="path5"
       style="fill:#418fde;fill-opacity:1;stroke:none;stroke-width:1.20001" />
  </g>
  <defs
     id="defs5" />
</svg>
